<?xml version="1.0" standalone="no"?>
<!DOCTYPE svg PUBLIC "-//W3C//DTD SVG 20010904//EN"
 "http://www.w3.org/TR/2001/REC-SVG-20010904/DTD/svg10.dtd">
<svg version="1.0" xmlns="http://www.w3.org/2000/svg"
 width="512.000000pt" height="512.000000pt" viewBox="0 0 512.000000 512.000000"
 preserveAspectRatio="xMidYMid meet">

<g transform="translate(0.000000,512.000000) scale(0.100000,-0.100000)"
fill="#000000" stroke="none">
<path d="M2440 5085 c-63 -7 -155 -20 -205 -30 -49 -9 -101 -19 -115 -22 -107
-20 -173 -38 -279 -78 -68 -25 -143 -50 -168 -56 -29 -6 -62 -24 -90 -48 -24
-22 -80 -58 -123 -81 -44 -22 -80 -45 -80 -50 0 -5 -35 -26 -79 -46 -78 -37
-78 -38 -90 -86 -10 -44 -100 -202 -126 -221 -5 -4 -31 -15 -57 -24 l-48 -18
0 -70 c0 -38 -5 -99 -10 -135 -8 -56 -14 -70 -44 -97 -20 -18 -45 -33 -57 -33
-17 0 -19 -4 -13 -17 5 -10 10 -152 12 -315 l3 -297 32 5 c18 2 77 9 131 14
55 6 101 12 102 13 2 1 -35 36 -81 77 -46 41 -82 76 -80 78 2 2 38 -11 81 -29
58 -24 94 -48 136 -89 77 -75 76 -86 -9 -96 -95 -11 -231 -9 -275 4 l-38 10 0
-79 c0 -43 4 -79 9 -79 5 0 43 -25 85 -56 l76 -55 -1 -82 c-1 -45 2 -104 6
-132 12 -86 45 -278 55 -315 4 -19 11 -65 15 -102 6 -64 11 -75 98 -205 51
-76 115 -181 142 -233 49 -92 137 -301 131 -308 -2 -1 -16 19 -32 45 -43 74
-189 265 -266 348 -6 6 -7 -5 -3 -30 13 -77 47 -262 90 -480 24 -121 46 -238
50 -260 9 -53 75 -200 138 -305 154 -259 444 -647 611 -818 l71 -74 53 5 c29
3 114 -3 189 -14 170 -24 186 -24 356 0 75 11 160 17 189 14 l53 -5 71 74
c167 171 457 559 611 818 63 105 129 252 138 305 4 22 26 139 50 260 43 218
77 403 90 480 4 25 3 36 -3 30 -77 -83 -223 -274 -266 -348 -16 -26 -30 -46
-32 -45 -6 7 82 216 131 308 28 52 91 157 142 233 87 130 92 141 98 205 4 37
11 83 15 102 27 108 52 281 57 398 l6 133 75 54 c41 30 78 55 83 55 5 0 9 36
9 79 l0 79 -37 -10 c-45 -13 -181 -15 -275 -4 -86 10 -87 21 -10 96 42 41 78
65 136 89 43 18 79 31 81 29 2 -2 -34 -37 -80 -78 -46 -41 -83 -76 -81 -77 1
-1 47 -7 102 -13 54 -5 113 -12 131 -14 l32 -5 3 297 c2 163 7 305 12 315 6
13 4 17 -13 17 -12 0 -37 15 -57 33 -30 27 -36 41 -44 97 -5 36 -10 97 -10
135 l0 70 -47 18 c-27 9 -53 20 -58 24 -26 19 -116 177 -126 221 -12 48 -12
49 -90 86 -44 20 -79 41 -79 46 0 5 -36 28 -80 50 -43 23 -99 59 -123 81 -28
24 -61 42 -90 48 -25 6 -100 31 -168 56 -108 40 -168 57 -284 80 -130 24 -262
45 -325 50 -41 3 -86 8 -100 9 -14 2 -77 -2 -140 -9z m-788 -673 c42 -32 106
-75 143 -97 43 -26 97 -73 152 -132 47 -51 83 -93 81 -93 -15 0 -142 56 -203
89 -112 60 -181 117 -245 201 -59 77 -130 184 -130 195 0 4 28 -19 63 -50 34
-31 97 -82 139 -113z m1992 101 c-113 -177 -192 -255 -339 -334 -61 -33 -188
-89 -203 -89 -2 0 34 42 81 93 55 59 109 106 152 132 89 54 207 141 280 208
33 30 62 53 63 52 2 -2 -13 -30 -34 -62z m-1433 -30 c23 -43 69 -115 101 -160
59 -81 128 -220 128 -258 0 -34 -106 81 -162 174 -59 100 -138 321 -114 321 2
0 23 -35 47 -77z m725 -56 c-19 -57 -57 -141 -84 -188 -56 -93 -162 -208 -162
-174 0 38 69 177 128 258 32 45 79 118 103 162 55 101 61 79 15 -58z m-1021
15 c50 -49 110 -101 135 -117 96 -60 188 -140 215 -187 14 -27 38 -62 52 -78
30 -36 26 -48 -8 -22 -13 10 -72 46 -131 81 -58 34 -140 91 -181 126 -63 54
-80 75 -115 147 -40 82 -64 138 -59 138 1 0 43 -40 92 -88z m1384 61 c-5 -15
-29 -65 -51 -111 -35 -72 -52 -93 -115 -147 -41 -35 -123 -92 -181 -126 -59
-35 -118 -71 -131 -81 -34 -26 -38 -14 -8 22 14 16 38 51 52 78 27 47 118 127
215 187 25 16 83 67 130 115 47 48 88 87 92 88 4 1 3 -10 -3 -25z m-2064 -133
c18 -11 99 -45 181 -76 81 -30 157 -60 168 -66 27 -14 157 -130 152 -135 -5
-5 -214 70 -266 97 -85 43 -300 198 -276 200 5 0 23 -9 41 -20z m2675 -11
c-50 -43 -197 -142 -250 -169 -52 -27 -261 -102 -266 -97 -5 5 125 121 152
135 11 6 87 36 169 66 82 31 162 65 179 76 46 30 56 23 16 -11z m-1415 -66
c13 -16 34 -41 48 -57 l24 -30 39 52 c36 49 68 71 82 58 14 -14 -80 -256 -100
-256 -4 0 -8 -7 -8 -15 0 -8 -7 -15 -15 -15 -8 0 -15 7 -15 15 0 8 -4 15 -8
15 -17 0 -102 207 -102 248 0 21 31 13 55 -15z m-1125 -179 c50 -52 90 -97 88
-99 -4 -4 -150 34 -157 40 -2 3 4 7 13 11 23 9 20 30 -12 77 -67 99 -48 91 68
-29z m2494 84 c-4 -7 -20 -32 -36 -55 -32 -47 -35 -68 -12 -77 9 -4 15 -8 13
-11 -7 -6 -153 -44 -157 -40 -6 5 179 195 190 195 5 0 6 -6 2 -12z m-2767
-152 c21 -8 72 -25 113 -36 94 -28 206 -97 187 -116 -3 -3 -42 4 -88 16 -66
16 -102 32 -166 76 -107 72 -119 88 -46 60z m2979 5 c-4 -5 -43 -34 -89 -65
-64 -44 -100 -60 -166 -76 -46 -12 -85 -19 -88 -16 -20 20 95 89 198 119 46
14 95 30 109 35 32 14 43 14 36 3z m-2901 -266 c74 -94 100 -133 92 -141 -3
-3 -57 16 -121 41 -64 25 -120 44 -124 41 -4 -2 -19 4 -32 15 l-25 19 25 0
c14 0 56 -5 94 -10 38 -6 71 -8 74 -5 3 2 -17 37 -44 77 -27 40 -51 78 -53 83
-9 23 46 -36 114 -120z m2845 45 c-27 -41 -50 -78 -50 -83 0 -5 15 -7 33 -4
17 4 61 9 97 12 l65 6 -25 -19 c-13 -11 -28 -18 -32 -16 -4 3 -60 -16 -124
-41 -64 -25 -118 -44 -121 -41 -8 7 17 47 76 121 63 80 123 146 128 141 2 -2
-19 -36 -47 -76z m-2850 -176 c85 -27 130 -56 130 -80 0 -15 -30 -12 -119 13
-40 10 -68 28 -107 65 -61 57 -70 79 -21 50 17 -11 70 -32 117 -48z m2889 1
c-42 -41 -69 -57 -110 -68 -89 -25 -119 -28 -119 -13 0 25 41 50 134 81 52 18
104 39 117 48 45 32 33 5 -22 -48z m-3012 -384 c21 -10 47 -29 58 -42 l20 -22
-20 7 c-39 14 -145 77 -145 86 0 11 29 1 87 -29z m3123 29 c0 -9 -105 -72
-145 -86 l-20 -7 20 23 c11 12 47 36 80 51 69 33 65 32 65 19z m-2707 -120
c95 -23 443 -99 600 -131 l107 -22 50 -105 c28 -58 50 -106 50 -108 0 -1 -15
2 -32 7 -47 13 -163 38 -233 50 -33 5 -109 21 -170 34 -293 66 -458 80 -590
51 -65 -14 -92 -14 -69 2 13 9 144 167 173 210 12 17 24 32 27 32 3 0 42 -9
87 -20z m2318 -12 c29 -43 160 -201 173 -210 23 -16 -4 -16 -69 -2 -132 29
-297 15 -590 -51 -60 -13 -137 -29 -170 -34 -70 -12 -186 -37 -232 -50 -18 -5
-33 -8 -33 -7 0 2 22 50 50 108 l50 105 107 22 c172 35 511 110 593 130 100
25 95 26 121 -11z m-1917 -358 c114 -30 165 -60 240 -141 36 -39 66 -75 66
-80 0 -5 -24 -9 -54 -9 -29 0 -89 -11 -132 -25 -166 -53 -228 -55 -355 -16
-67 21 -272 147 -266 164 4 12 155 74 247 102 95 29 156 30 254 5z m1651 -4
c94 -28 248 -91 252 -103 6 -17 -199 -143 -266 -164 -127 -39 -189 -37 -355
16 -43 14 -103 25 -132 25 -30 0 -54 4 -54 9 0 20 137 154 180 176 64 32 183
64 245 64 28 0 86 -10 130 -23z m-1237 -979 c7 -5 10 -17 8 -26 -2 -9 -7 -46
-11 -82 l-6 -65 103 -45 c182 -78 200 -78 381 -1 l108 46 -6 66 c-4 36 -9 72
-11 81 -6 20 12 35 52 43 31 7 32 6 38 -36 4 -24 18 -88 31 -142 29 -117 36
-106 -97 -162 -48 -20 -110 -51 -138 -69 -104 -67 -226 -67 -331 0 -27 18 -89
49 -137 69 -133 56 -126 45 -97 162 13 54 27 118 31 142 6 42 7 43 38 36 17
-3 37 -11 44 -17z m562 -761 c155 -46 324 -112 340 -131 7 -8 11 -15 9 -15 -2
-1 -25 -3 -52 -5 -26 -2 -108 -27 -183 -55 -213 -79 -274 -94 -389 -94 -115 0
-176 15 -389 94 -75 28 -157 52 -183 54 -27 2 -48 8 -48 13 0 14 104 60 230
102 222 74 256 80 405 77 123 -2 146 -6 260 -40z"/>
<path d="M146 3333 c4 -15 21 -57 37 -93 32 -71 67 -174 67 -198 0 -32 54
-202 97 -304 81 -191 164 -326 415 -667 63 -85 120 -157 128 -161 8 -4 36 -17
61 -28 26 -11 63 -35 83 -53 20 -17 38 -30 40 -28 8 11 -31 229 -44 244 -8 9
-58 51 -112 92 l-97 76 5 111 c2 61 10 144 15 185 l11 74 -34 26 c-113 88
-458 434 -445 447 2 2 38 -15 80 -37 102 -56 260 -176 381 -291 l100 -94 -17
-100 c-9 -54 -18 -140 -19 -190 l-3 -90 73 -63 c59 -51 72 -58 67 -39 -6 27
-30 215 -49 383 -13 108 -33 349 -39 450 -2 38 -5 41 -79 86 -42 25 -114 61
-160 79 -46 18 -141 60 -213 92 -143 66 -289 118 -329 118 -24 0 -26 -3 -20
-27z"/>
<path d="M4850 3331 c-47 -16 -144 -56 -215 -89 -72 -32 -167 -74 -213 -92
-46 -18 -118 -54 -160 -79 -74 -45 -77 -48 -79 -86 -6 -101 -26 -342 -39 -450
-19 -168 -43 -356 -49 -383 -5 -19 8 -12 67 39 l73 63 -3 90 c-1 50 -10 136
-19 190 l-17 100 100 94 c121 115 279 235 381 291 42 22 78 39 80 37 13 -13
-332 -359 -445 -447 l-34 -26 11 -74 c5 -41 13 -124 15 -185 l5 -111 -97 -76
c-54 -41 -104 -83 -112 -92 -13 -15 -52 -233 -44 -244 2 -2 20 11 40 28 20 18
57 42 83 53 25 11 53 24 61 28 8 4 65 76 128 161 251 341 334 476 415 667 43
102 97 272 97 304 0 24 35 127 67 198 16 36 33 78 37 93 6 25 4 27 -21 27 -16
0 -66 -13 -113 -29z"/>
</g>
</svg>
