<?xml version="1.0" encoding="UTF-8"?>
<svg xmlns="http://www.w3.org/2000/svg" viewBox="0 0 660 880">
  <defs>
    <style>
      .cls-1 {
        fill: #ee2626;
      }

      .cls-2 {
        fill: none;
      }

      .cls-3 {
        fill: #272727;
      }

      .cls-3, .cls-4 {
        opacity: .5;
      }

      .cls-4 {
        fill: #54461b;
      }
    </style>
  </defs>
  <g id="Layer_1" data-name="Layer 1">
    <path class="cls-1" d="m418.35,68.21c-2.63,11.78-2.09,26.47-2.86,41.07-.48,9.14,2.9,17.82,5.61,26.37,1.12,3.52,1.51,6.88.84,10.01-2.2,10.27,2.22,18.03,13.07,20.31,18.2,3.83,35.97,8.66,51.13,20.05,7.89,5.93,15.51,12.24,23.05,18.62,5.46,4.63,4.47,10.42-2.43,12-10.09,2.32-11.85,7.98-9.63,17.21,4.99,20.77,9.52,41.65,13.92,62.54,1.05,4.98,3.78,8.58,7.12,11.91,5.73,5.71,7.83,12.29,4.51,19.81-1.95,4.42-1.19,8.72-.23,12.85,1.8,7.72,8.49,9.42,14.38,3.9,2.63-2.47,5.42-5.39,8.99-3.4,3.17,1.77.93,5.45.8,8.27-.91,19.64-5.49,39.1-3.31,58.88,1.64,14.97,6.69,29.18,11.06,43.46,9.18,30.01,21.41,58.88,34.87,87.22,11.23,23.63,22.9,47.05,35.83,69.81,6.4,11.27,13.04,22.41,19.64,33.57,6.09,10.3,1.04,25.32-12.55,36.74-7.61,6.4-16.58,10.67-25.72,14.06-7.49,2.78-13.88,6.79-19.97,11.66-4.89,3.9-10.7,6.07-16.73,5.76-14.2-.73-25.14,8.06-37.73,11.96-11.17,3.46-22.3,6.94-34.18,6.99-1.62,0-3.89.77-4.74,1.97-9.37,13.31-24.41,15.62-38.38,19.78-7.72,2.3-15.59,4.5-23.86,4.2-2.08-.08-4.76.82-3.38,3.4,4.46,8.33,1.83,16.6.78,25.02-1.23,9.79-2.04,19.63-2.77,29.47-.89,12.16-.91,24.41-2.47,36.48-.94,7.23-6.47,11.83-13.82,13.13-14.36,2.54-28.87,4.23-39.87-8.35-5.34-6.1-8.07-13.5-6.06-22.06,2.27-9.65,4.21-19.37,6.22-29.08.47-2.26-.48-3.34-2.96-3.24-10.82.44-21.35,2.98-32.02,4.28-17.89,2.18-35.59,8.97-53.9,3.84-10.78-3.02-12.1-8.36-4.11-16.3,11.39-11.31,25.55-18.49,39.8-25.45,2.49-1.22,6.52-1.46,6.89-4.49.46-3.75-3.92-3.32-6.21-4.28-8.86-3.67-16.43-8.78-21.54-17.09-3.08-5-9-3.8-13.42-6-24.85-12.37-39.34-31.32-39.51-59.75-.14-22.99-.66-46.01.28-68.97,1.46-35.84,1.82-71.69,2.84-107.52,1.34-46.73,1.39-93.47.39-140.18-.64-29.99-1.88-60.09-12.27-88.92-2.69-7.47-8.32-6.44-13.74-7.48-11.63-2.23-21.77-10.59-34.44-8.5-7.01,1.16-13.68,1.46-20.49-1.8-3.74-1.79-3.06,2.36-2.82,4.26.97,7.8-2.53,8.44-8.96,6.58-33.29-9.62-61.29-28.86-88.92-48.7-13.83-9.93-26.96-20.88-42.46-28.29-2.79-1.34-5.77-2.28-8.57-3.6-9.27-4.36-15.39-18.2-12.64-29.55,1.35-5.6,2.75-11.22,5.61-16.45,4.3-7.86,9.79-11.6,19.24-9.71,6.19,1.24,12.64-1.56,19.23.29,6.33,1.78,10.67,4.69,12.59,11.18,1.5,5.05,3.45,9.97,5.48,14.84.52,1.24,2.04,2.85,3.19,2.92,9.18.58,14.37,7.26,19.43,13.3,7.17,8.56,16.58,10.82,26.74,11.98,19.43,2.21,37.77,8.71,56.37,14.18.74.22,1.29,1.02,2.02,1.37,3.5,1.66,4.43,8.15,8.21,7.11,8.62-2.37,18.04-2.37,24.98-10.31,15.88-18.16,37.14-28.96,59.55-35.56,12.79-3.77,27.77-3.61,40.51,4.91,4.82,3.22,8.83-.39,12.11-3.27,3.39-2.98-.86-5-2.25-6.75-4.88-6.18-6.22-13.37-2.94-19.85,8.57-16.93,7.73-34.86,6.63-52.69-.75-12.13-3.06-23.97,3.11-35.49,7.03-13.14,12.77-27.56,27.83-33.49,6.96-2.74,14.18-4.31,19.58-10.02.71-.75,2.45-1.98,3.89-.19,6.63,8.23,16.63,11.93,24.72,18.26,15.28,11.95,21.89,27.38,21.83,49.03Zm-121.06,443.27c0,4.38.05,7.21-.01,10.04-.08,3.56,1.1,8.62-2.64,9.79-3.7,1.16-4.34-4.42-6.66-6.72-.85-.84-.9-2.99-2.48-2.49-1.59.5-1.42,2.4-1.34,3.91.49,8.83,3.74,17.02,6.03,25.42,3.51,12.91,8.94,25.54,10.56,38.66,1.68,13.59,4.9,26,12.38,37.36,7.1,10.8,12.5,22.3,15.15,35.06.82,3.96,2.52,7.83,5.77,10.57,2.55,2.14,3.63,4.82,4.18,8,3.3,18.87,7.15,37.67,9.92,56.62,2.98,20.37,5.29,16.69-13.56,25.19-18.52,8.36-37.1,16.5-52.68,29.95-2.57,2.22-6.47,4.58-5.37,8.18,1.23,4.01,5.57,4.82,9.73,5.07,15.44.91,30.45-2.5,45.49-4.91,12.08-1.94,24.16-3.77,36.31-5.23,4.68-.56,5.77,1.22,5.15,5.43-1.63,11.19-2.93,22.43-4.72,33.59-1.7,10.65,3.39,20.01,13.46,24.02,9.3,3.71,18.28,2.1,27.48-.8,6.65-2.1,10.17-7.04,10.73-12.82,2.36-24.09.13-48.48,5.11-72.46,1.82-8.77-3.6-16.51-5.88-24.66-5.31-18.98,1.68-37.11,3.78-55.55,1.38-12.15,5.84-24.05,4.11-36.43-1.76-12.59-1.34-24.38,6.53-35.15,5.84-7.99,8.51-17.03,7.58-27.08-.95-10.24-5.14-20.79,2.11-30.46,3.66-4.89,4.06-10.48,3.97-16.26-.03-1.99.09-4.64-1.82-5.03-1.64-.34-2.86,1.94-3.96,3.69-1.29,2.05-.82,6.68-5.01,5.46-3.92-1.14-4.76-4.78-4.18-8.51,2.2-14.15,4.95-28.23,6.62-42.44,1.4-11.89,4.54-23.82,3.08-35.76-1.49-12.21-1.26-22.76,11.56-28.98,1.38-.67,2.48-3.23,2.59-4.98.64-9.66-.02-19.22-3.76-28.31-5.3-12.89-12.49-25.22-11.19-39.97,1.85-21.08,10.11-40.69,14.1-61.27.14-.71.82-1.32,1.24-1.98.56.74,1.28,1.42,1.65,2.24,3.13,7.07,5.95,14.29,9.33,21.24,4.29,8.81,4.96,18.66,7.69,27.88,1.57,5.3.86,12.63,1.76,18.78,2.09,14.18,9.6,27.45,7.15,42.47-.13.83.43,1.93.97,2.68,9.27,12.8,7.16,38.86-3.99,49.72-6.79,6.62-12.04,12.85-7.62,24.12,3.51,8.97,8.36,15.38,17.21,16.39,10.8,1.23,21.01-3.29,30.99-7.35,6.81-2.77,10.24-7.85,8.55-14.87-6.13-25.51-.24-50.39,4.58-75,3.56-18.17,6.33-36.27,7.39-54.69.08-1.3.94-3.19-1-3.92-1.77-.67-3.23.22-4.31,1.69-3.49,4.76-7.97,4.22-11.62,1-6.45-5.69-10.06-12.95-7.36-21.79,2.24-7.34,2.47-14.26-3.97-19.35-6.2-4.91-8.01-12.24-9.28-18.74-3.72-19.04-7.42-38.05-12.23-56.85-1.29-5.04-2.7-10.5-2.01-15.48.92-6.63,8.19-4.61,12.47-6.81,2.63-1.35,4.28-4.3,1.03-6.72-15.33-11.36-28.83-25.92-48.4-30.19-11.62-2.54-23.68-2.95-34.17-9.73-2.28-1.47-5.3.28-7.47,2.41-7.4,7.27-14.77,14.57-22.35,21.65-6.71,6.26-11.74,9.93-9.76,20.2,1.3,6.74-3.05,11.94-7.92,14.56-4.78,2.57-11.71,2.02-15.87-1.37-4.53-3.69-7.24-7.76-5.47-13.95,1.51-5.27-.63-8.98-3.83-12.31-7.34-7.63-15.02-14.93-22.4-22.53-5.51-5.67-10.94-10.64-19.86-7.14-2.38.93-5.42-.22-7.22-2.35-1.73-2.04-3.72-2.27-6.13-2.47-6.87-.58-13.69-.41-20.59-.26-22.14.48-38.7,13.18-55.85,24.46-8.02,5.27-12.49,15.33-23.22,17.25-8.82,1.58-18.53,10.48-25.04-3.63-.19-.41-.71-.77-1.15-.93-13.49-4.99-27.19-9.15-41.36-11.85-15.55-2.96-31.54-4.32-44.53-15.54-4.15-3.59-5.86-10.45-11.6-11.06-7.47-.8-10.52-4.62-12.66-11.16-2.6-7.97-3.78-17.95-14.24-19.67-7.09-1.17-14.57-.44-21.82.16-2.72.23-5.9-.29-8.34,2.82-7.57,9.61-8.64,20.6-7.63,32.06.43,4.88,1.99,9.56,7.23,11.74,8.01,3.34,15.94,6.5,23.16,11.78,14.73,10.77,30.96,19.57,45.16,30.94,21.62,17.32,45.81,29.26,71.46,38.84,1.89.71,3.23.85,4.68-.71,1.26-1.36.56-2.98.07-4.17-1.25-3.03-4.98-9.42,4.71-6.88,7.23,1.9,14.71,2.62,22.51,2.76,21.56.37,42.07,7.94,62.81,13.26,9.58,2.46,19.9,5.85,23.68,17.44,6.65,20.41,14.27,40.53,18.72,61.6,1.62,7.66,6.09,15.08,2.62,23.31-6.15,14.59-12.81,28.99-18.33,43.82-3.13,8.4-3.7,17.45,5.58,23.27,6.67,4.18,7.16,10.76,7.83,17.47.45,4.54.56,9.21,1.78,13.55,4.59,16.31,9.13,32.58,8.33,48.23Zm174.22-147.34c.05-21.65-6.79-37.67-12.22-54.03-.22-.67-1.39-1.03-2.11-1.54-.35.82-.84,1.6-1.03,2.45-1.79,7.87-3.16,15.86-5.37,23.62-4.46,15.66-10.89,31.18-2.51,47.39,5.93,11.48,10.1,23.42,11.64,36.29.95,7.98,3.63,16.5-4.95,21.91-7.38,4.65-11.09,9.44-9.96,19.33,2.77,24.29-3.67,48.01-7.2,71.87-.56,3.79-.67,7.42-.16,11.14,4.02-.76,3.86-4.88,5.87-7.23,1.64-1.92,6.03-4.96,6.07-2.34.13,9.49,5.24,19.78-1.05,28.49-6.91,9.57-5.31,19.45-3.84,29.76,1.23,8.62,2.13,16.76-3.83,24.93-8.47,11.63-12.4,25.02-9.94,39.88.82,4.97.28,10.31-.41,15.37-1.53,11.29-3.2,22.58-5.45,33.74-2.6,12.95-3.98,25.85-1.96,38.99.8,5.19,2.42,9.34,9.06,7.78,4.59-1.08,9.23-1.92,13.82-2.99,12.27-2.85,24.71-5.02,35.56-12.28,4.99-3.34,7.75-9.21,15.27-9.96,12.82-1.29,25.67-3.39,37.77-8.61,5.37-2.32,9.31-7.49,15.38-8.03,15.83-1.42,31.46-3.1,43.38-15.46.83-.86,2.34-1.05,3.53-1.58,13.48-6.03,27.65-10.7,38.07-22.23,8.03-8.88,10.83-18.61,6.31-26.12-2.64-4.39-5.22-8.8-7.85-13.19-30.34-50.56-56.79-103.02-76.72-158.58-6.24-17.41-10.83-35.41-16.19-53.13-.22-.72-.61-1.38-.92-2.07-.44.37-1.2.67-1.29,1.11-3.39,17.79-7.27,35.49-5.5,53.85.82,8.51,4.97,17.63-3.4,25.07-4.31,3.83-9.52,5.32-14.85,6.86-14.17,4.1-27.64,7.28-40-5.55-8.82-9.16-9.97-25.23,0-32.88,11.11-8.51,17.34-36.06,10.77-44.13-5.53-6.8-4.98-13.28-4.75-20.53.04-1.3-.16-2.64-.48-3.91-3.15-12.41-6.34-24.8-8.56-33.46Zm-225.23,272.53c0,11.33.06,22.66-.01,34-.16,28.12,12.19,48.2,37.7,60.54,4.92,2.38,9.23-.35,12.65.6,3.38.93,2.44,8.31,6.08,12.31,6.74,7.42,15.58,10.41,24.29,13.61,12.06,4.43,19.73-1.71,18.45-14.18-.4-3.86-1.35-7.66-2.02-11.49-2.98-16.99-5.83-34-9-50.95-.99-5.32-7.01-7.77-8.07-13.54-1.11-6.02-3.21-11.92-5.42-17.67-3.54-9.24-8.04-18.04-13.99-26.02-9.06-12.14-7-27.21-10.85-40.7-5.8-20.3-13.8-40-15.89-61.26-.28-2.81-2.39-6.25,1.49-7.7,3.62-1.35,6.2.56,7.64,4.31.61,1.58,2.64,4.02,3.49,3.82,2.19-.52,1.13-3.04,1.22-4.72,1.1-20.04-6.29-38.77-8.97-58.22-1.61-11.67-3.3-22.72-13.72-30.56-3.96-2.98-5.08-8.73-3.46-13.56,3.08-9.18,6.33-18.41,10.67-27.04,8.93-17.75,13.66-35.27,5.43-54.95-5.27-12.59-8.91-25.96-12.23-39.24-3.31-13.25-9.97-22.82-23.25-27.26-3.51-1.17-9.32-3.52-10.67-2.23-1.68,1.36,1.39,5.74,2.26,8.83,6.69,23.84,8.97,48.32,9.95,72.9,1.41,35.26,1.32,70.53.3,105.83-1.3,44.75-1.72,89.51-3.77,134.25-.76,16.66.06,33.53-.28,50.3ZM323.62,95.61c-.06,11.5-1.02,21.68-5.4,31.35-3.31,7.3-9.06,14.7-1.23,22.6,2.97,2.99,4.74,6.1,4.16,10.57-.21,1.66.82,3.94,2.04,5.24,9.53,10.21,19.09,20.39,28.99,30.24,2.57,2.56,5.17,4,10.44,2.07,3.24-1.06,6.52-1.52,10.15-.26,4.13,1.43,7.13.45,10-2.62,5.09-5.44,9.58-11.77,15.55-16.01,12.51-8.87,18.99-20.35,19.19-35.54.02-1.87.56-3.95-.07-5.58-6.06-15.84-5.57-32.34-4.88-48.78.4-9.44,3.07-18.91,2.56-28.24-.77-14.03-7.81-25.99-18.01-35.32-8.62-7.89-17.43-18.42-30.42-16.11-10.26,1.83-21.02,5.08-28.17,14.81-8.85,12.03-17.71,23.94-17.26,39.74.31,11,1.6,21.98,2.36,31.86Zm44.01,105.06c-7.37-.32-11.2,3.54-11.37,10.51-.17,6.84,3.72,11.53,10.53,11.64,7.01.11,12.34-4.58,12.32-11.37-.02-6.04-3.94-11.16-11.48-10.79Z"/>
  </g>
  <g id="Layer_2" data-name="Layer 2">
    <path class="cls-4" d="m246.27,636.67c0,11.33.06,22.66-.01,34-.16,28.12,12.19,48.2,37.7,60.54,4.92,2.38,9.23-.35,12.65.6,3.38.93,2.44,8.31,6.08,12.31,6.74,7.42,15.58,10.41,24.29,13.61,12.06,4.43,19.73-1.71,18.45-14.18-.4-3.86-1.35-7.66-2.02-11.49-2.98-16.99-5.83-34-9-50.95-.99-5.32-7.01-7.77-8.07-13.54-1.11-6.02-3.21-11.92-5.42-17.67-3.54-9.24-8.04-18.04-13.99-26.02-9.06-12.14-7-27.21-10.85-40.7-5.8-20.3-13.8-40-15.89-61.26-.28-2.81-2.39-6.25,1.49-7.7,3.62-1.35,6.2.56,7.64,4.31.61,1.58,2.64,4.02,3.49,3.82,2.19-.52,1.13-3.04,1.22-4.72,1.1-20.04-6.29-38.77-8.97-58.22-1.61-11.67-3.3-22.72-13.72-30.56-3.96-2.98-5.08-8.73-3.46-13.56,3.08-9.18,6.33-18.41,10.67-27.04,8.93-17.75,13.66-35.27,5.43-54.95-5.27-12.59-8.91-25.96-12.23-39.24-3.31-13.25-9.97-22.82-23.25-27.26-3.51-1.17-9.32-3.52-10.67-2.23-1.68,1.36,1.39,5.74,2.26,8.83,6.69,23.84,8.97,48.32,9.95,72.9,1.41,35.26,1.32,70.53.3,105.83-1.3,44.75-1.72,89.51-3.77,134.25-.76,16.66.06,33.53-.28,50.3Z"/>
    <path class="cls-4" d="m471.51,364.13c.05-21.65-6.79-37.67-12.22-54.03-.22-.67-1.39-1.03-2.11-1.54-.35.82-.84,1.6-1.03,2.45-1.79,7.87-3.16,15.86-5.37,23.62-4.46,15.66-10.89,31.18-2.51,47.39,5.93,11.48,10.1,23.42,11.64,36.29.95,7.98,3.63,16.5-4.95,21.91-7.38,4.65-11.09,9.44-9.96,19.33,2.77,24.29-3.67,48.01-7.2,71.87-.56,3.79-.67,7.42-.16,11.14,4.02-.76,3.86-4.88,5.87-7.23,1.64-1.92,6.03-4.96,6.07-2.34.13,9.49,5.24,19.78-1.05,28.49-6.91,9.57-5.31,19.45-3.84,29.76,1.23,8.62,2.13,16.76-3.83,24.93-8.47,11.63-12.4,25.02-9.94,39.88.82,4.97.28,10.31-.41,15.37-1.53,11.29-3.2,22.58-5.45,33.74-2.6,12.95-3.98,25.85-1.96,38.99.8,5.19,2.42,9.34,9.06,7.78,4.59-1.08,9.23-1.92,13.82-2.99,12.27-2.85,24.71-5.02,35.56-12.28,4.99-3.34,7.75-9.21,15.27-9.96,12.82-1.29,25.67-3.39,37.77-8.61,5.37-2.32,9.31-7.49,15.38-8.03,15.83-1.42,31.46-3.1,43.38-15.46.83-.86,2.34-1.05,3.53-1.58,13.48-6.03,27.65-10.7,38.07-22.23,8.03-8.88,10.83-18.61,6.31-26.12-2.64-4.39-5.22-8.8-7.85-13.19-30.34-50.56-56.79-103.02-76.72-158.58-6.24-17.41-10.83-35.41-16.19-53.13-.22-.72-.61-1.38-.92-2.07-.44.37-1.2.67-1.29,1.11-3.39,17.79-7.27,35.49-5.5,53.85.82,8.51,4.97,17.63-3.4,25.07-4.31,3.83-9.52,5.32-14.85,6.86-14.17,4.1-27.64,7.28-40-5.55-8.82-9.16-9.97-25.23,0-32.88,11.11-8.51,17.34-36.06,10.77-44.13-5.53-6.8-4.98-13.28-4.75-20.53.04-1.3-.16-2.64-.48-3.91-3.15-12.41-6.34-24.8-8.56-33.46Z"/>
    <path class="cls-2" d="m418.32,68.3c-2.63,11.78-2.09,26.47-2.86,41.07-.48,9.14,2.9,17.82,5.61,26.37,1.12,3.52,1.51,6.88.84,10.01-2.2,10.27,2.22,18.03,13.07,20.31,18.2,3.83,35.97,8.66,51.13,20.05,7.89,5.93,15.51,12.24,23.05,18.62,5.46,4.63,4.47,10.42-2.43,12-10.09,2.32-11.85,7.98-9.63,17.21,4.99,20.77,9.52,41.65,13.92,62.54,1.05,4.98,3.78,8.58,7.12,11.91,5.73,5.71,7.83,12.29,4.51,19.81-1.95,4.42-1.19,8.72-.23,12.85,1.8,7.72,8.49,9.42,14.38,3.9,2.63-2.47,5.42-5.39,8.99-3.4,3.17,1.77.93,5.45.8,8.27-.91,19.64-5.49,39.1-3.31,58.88,1.64,14.97,6.69,29.18,11.06,43.46,9.18,30.01,21.41,58.88,34.87,87.22,11.23,23.63,22.9,47.05,35.83,69.81,6.4,11.27,13.04,22.41,19.64,33.57,6.09,10.3,1.04,25.32-12.55,36.74-7.61,6.4-16.58,10.67-25.72,14.06-7.49,2.78-13.88,6.79-19.97,11.66-4.89,3.9-10.7,6.07-16.73,5.76-14.2-.73-25.14,8.06-37.73,11.96-11.17,3.46-22.3,6.94-34.18,6.99-1.62,0-3.89.77-4.74,1.97-9.37,13.31-24.41,15.62-38.38,19.78-7.72,2.3-15.59,4.5-23.86,4.2-2.08-.08-4.76.82-3.38,3.4,4.46,8.33,1.83,16.6.78,25.02-1.23,9.79-2.04,19.63-2.77,29.47-.89,12.16-.91,24.41-2.47,36.48-.94,7.23-6.47,11.83-13.82,13.13-14.36,2.54-28.87,4.23-39.87-8.35-5.34-6.1-8.07-13.5-6.06-22.06,2.27-9.65,4.21-19.37,6.22-29.08.47-2.26-.48-3.34-2.96-3.24-10.82.44-21.35,2.98-32.02,4.28-17.89,2.18-35.59,8.97-53.9,3.84-10.78-3.02-12.1-8.36-4.11-16.3,11.39-11.31,25.55-18.49,39.8-25.45,2.49-1.22,6.52-1.46,6.89-4.49.46-3.75-3.92-3.32-6.21-4.28-8.86-3.67-16.43-8.78-21.54-17.09-3.08-5-9-3.8-13.42-6-24.85-12.37-39.34-31.32-39.51-59.75-.14-22.99-.66-46.01.28-68.97,1.46-35.84,1.82-71.69,2.84-107.52,1.34-46.73,1.39-93.47.39-140.18-.64-29.99-1.88-60.09-12.27-88.92-2.69-7.47-8.32-6.44-13.74-7.48-11.63-2.23-21.77-10.59-34.44-8.5-7.01,1.16-13.68,1.46-20.49-1.8-3.74-1.79-3.06,2.36-2.82,4.26.97,7.8-2.53,8.44-8.96,6.58-33.29-9.62-61.29-28.86-88.92-48.7-13.83-9.93-26.96-20.88-42.46-28.29-2.79-1.34-5.77-2.28-8.57-3.6-9.27-4.36-15.39-18.2-12.64-29.55,1.35-5.6,2.75-11.22,5.61-16.45,4.3-7.86,9.79-11.6,19.24-9.71,6.19,1.24,12.64-1.56,19.23.29,6.33,1.78,10.67,4.69,12.59,11.18,1.5,5.05,3.45,9.97,5.48,14.84.52,1.24,2.04,2.85,3.19,2.92,9.18.58,14.37,7.26,19.43,13.3,7.17,8.56,16.58,10.82,26.74,11.98,19.43,2.21,37.77,8.71,56.37,14.18.74.22,1.29,1.02,2.02,1.37,3.5,1.66,4.43,8.15,8.21,7.11,8.62-2.37,18.04-2.37,24.98-10.31,15.88-18.16,37.14-28.96,59.55-35.56,12.79-3.77,27.77-3.61,40.51,4.91,4.82,3.22,8.83-.39,12.11-3.27,3.39-2.98-.86-5-2.25-6.75-4.88-6.18-6.22-13.37-2.94-19.85,8.57-16.93,7.73-34.86,6.63-52.69-.75-12.13-3.06-23.97,3.11-35.49,7.03-13.14,12.77-27.56,27.83-33.49,6.96-2.74,14.18-4.31,19.58-10.02.71-.75,2.45-1.98,3.89-.19,6.63,8.23,16.63,11.93,24.72,18.26,15.28,11.95,21.89,27.38,21.83,49.03Z"/>
  </g>
  <g id="Layer_3" data-name="Layer 3">
    <path class="cls-3" d="m367.63,200.67c-7.37-.32-11.2,3.54-11.37,10.51-.17,6.84,3.72,11.53,10.53,11.64,7.01.11,12.34-4.58,12.32-11.37-.02-6.04-3.94-11.16-11.48-10.79Z"/>
    <path class="cls-3" d="m323.62,95.62c-.06,11.5-1.02,21.68-5.4,31.35-3.31,7.3-9.06,14.7-1.23,22.6,2.97,2.99,4.74,6.1,4.16,10.57-.21,1.66.82,3.94,2.04,5.24,9.53,10.21,19.09,20.39,28.99,30.24,2.57,2.56,5.17,4,10.44,2.07,3.24-1.06,6.52-1.52,10.15-.26,4.13,1.43,7.13.45,10-2.62,5.09-5.44,9.58-11.77,15.55-16.01,12.51-8.87,18.99-20.35,19.19-35.54.02-1.87.56-3.95-.07-5.58-6.06-15.84-5.57-32.34-4.88-48.78.4-9.44,3.07-18.91,2.56-28.24-.77-14.03-7.81-25.99-18.01-35.32-8.62-7.89-17.43-18.42-30.42-16.11-10.26,1.83-21.02,5.08-28.17,14.81-8.85,12.03-17.71,23.94-17.26,39.74.31,11,1.6,21.98,2.36,31.86Z"/>
    <path class="cls-3" d="m297.29,511.47c0,4.38.05,7.21-.01,10.04-.08,3.56,1.1,8.62-2.64,9.79-3.7,1.16-4.34-4.42-6.66-6.72-.85-.84-.9-2.99-2.48-2.49-1.59.5-1.42,2.4-1.34,3.91.49,8.83,3.74,17.02,6.03,25.42,3.51,12.91,8.94,25.54,10.56,38.66,1.68,13.59,4.9,26,12.38,37.36,7.1,10.8,12.5,22.3,15.15,35.06.82,3.96,2.52,7.83,5.77,10.57,2.55,2.14,3.63,4.82,4.18,8,3.3,18.87,7.15,37.67,9.92,56.62,2.98,20.37,5.29,16.69-13.56,25.19-18.52,8.36-37.1,16.5-52.68,29.95-2.57,2.22-6.47,4.58-5.37,8.18,1.23,4.01,5.57,4.82,9.73,5.07,15.44.91,30.45-2.5,45.49-4.91,12.08-1.94,24.16-3.77,36.31-5.23,4.68-.56,5.77,1.22,5.15,5.43-1.63,11.19-2.93,22.43-4.72,33.59-1.7,10.65,3.39,20.01,13.46,24.02,9.3,3.71,18.28,2.1,27.48-.8,6.65-2.1,10.17-7.04,10.73-12.82,2.36-24.09.13-48.48,5.11-72.46,1.82-8.77-3.6-16.51-5.88-24.66-5.31-18.98,1.68-37.11,3.78-55.55,1.38-12.15,5.84-24.05,4.11-36.43-1.76-12.59-1.34-24.38,6.53-35.15,5.84-7.99,8.51-17.03,7.58-27.08-.95-10.24-5.14-20.79,2.11-30.46,3.66-4.89,4.06-10.48,3.97-16.26-.03-1.99.09-4.64-1.82-5.03-1.64-.34-2.86,1.94-3.96,3.69-1.29,2.05-.82,6.68-5.01,5.46-3.92-1.14-4.76-4.78-4.18-8.51,2.2-14.15,4.95-28.23,6.62-42.44,1.4-11.89,4.54-23.82,3.08-35.76-1.49-12.21-1.26-22.76,11.56-28.98,1.38-.67,2.48-3.23,2.59-4.98.64-9.66-.02-19.22-3.76-28.31-5.3-12.89-12.49-25.22-11.19-39.97,1.85-21.08,10.11-40.69,14.1-61.27.14-.71.82-1.32,1.24-1.98.56.74,1.28,1.42,1.65,2.24,3.13,7.07,5.95,14.29,9.33,21.24,4.29,8.81,4.96,18.66,7.69,27.88,1.57,5.3.86,12.63,1.76,18.78,2.09,14.18,9.6,27.45,7.15,42.47-.13.83.43,1.93.97,2.68,9.27,12.8,7.16,38.86-3.99,49.72-6.79,6.62-12.04,12.85-7.62,24.12,3.51,8.97,8.36,15.38,17.21,16.39,10.8,1.23,21.01-3.29,30.99-7.35,6.81-2.77,10.24-7.85,8.55-14.87-6.13-25.51-.24-50.39,4.58-75,3.56-18.17,6.33-36.27,7.39-54.69.08-1.3.94-3.19-1-3.92-1.77-.67-3.23.22-4.31,1.69-3.49,4.76-7.97,4.22-11.62,1-6.45-5.69-10.06-12.95-7.36-21.79,2.24-7.34,2.47-14.26-3.97-19.35-6.2-4.91-8.01-12.24-9.28-18.74-3.72-19.04-7.42-38.05-12.23-56.85-1.29-5.04-2.7-10.5-2.01-15.48.92-6.63,8.19-4.61,12.47-6.81,2.63-1.35,4.28-4.3,1.03-6.72-15.33-11.36-28.83-25.92-48.4-30.19-11.62-2.54-23.68-2.95-34.17-9.73-2.28-1.47-5.3.28-7.47,2.41-7.4,7.27-14.77,14.57-22.35,21.65-6.71,6.26-11.74,9.93-9.76,20.2,1.3,6.74-3.05,11.94-7.92,14.56-4.78,2.57-11.71,2.02-15.87-1.37-4.53-3.69-7.24-7.76-5.47-13.95,1.51-5.27-.63-8.98-3.83-12.31-7.34-7.63-15.02-14.93-22.4-22.53-5.51-5.67-10.94-10.64-19.86-7.14-2.38.93-5.42-.22-7.22-2.35-1.73-2.04-3.72-2.27-6.13-2.47-6.87-.58-13.69-.41-20.59-.26-22.14.48-38.7,13.18-55.85,24.46-8.02,5.27-12.49,15.33-23.22,17.25-8.82,1.58-18.53,10.48-25.04-3.63-.19-.41-.71-.77-1.15-.93-13.49-4.99-27.19-9.15-41.36-11.85-15.55-2.96-31.54-4.32-44.53-15.54-4.15-3.59-5.86-10.45-11.6-11.06-7.47-.8-10.52-4.62-12.66-11.16-2.6-7.97-3.78-17.95-14.24-19.67-7.09-1.17-14.57-.44-21.82.16-2.72.23-5.9-.29-8.34,2.82-7.57,9.61-8.64,20.6-7.63,32.06.43,4.88,1.99,9.56,7.23,11.74,8.01,3.34,15.94,6.5,23.16,11.78,14.73,10.77,30.96,19.57,45.16,30.94,21.62,17.32,45.81,29.26,71.46,38.84,1.89.71,3.23.85,4.68-.71,1.26-1.36.56-2.98.07-4.17-1.25-3.03-4.98-9.42,4.71-6.88,7.23,1.9,14.71,2.62,22.51,2.76,21.56.37,42.07,7.94,62.81,13.26,9.58,2.46,19.9,5.85,23.68,17.44,6.65,20.41,14.27,40.53,18.72,61.6,1.62,7.66,6.09,15.08,2.62,23.31-6.15,14.59-12.81,28.99-18.33,43.82-3.13,8.4-3.7,17.45,5.58,23.27,6.67,4.18,7.16,10.76,7.83,17.47.45,4.54.56,9.21,1.78,13.55,4.59,16.31,9.13,32.58,8.33,48.23Z"/>
  </g>
</svg>